<svg xmlns="http://www.w3.org/2000/svg" xmlns:xlink="http://www.w3.org/1999/xlink" viewBox="0 0 892 600"><defs><style>.cls-1{fill:none;}.cls-2{clip-path:url(#clip-path);}.cls-3{fill:#fff;}.cls-4{fill:#d00;}.cls-5{fill:#002395;}.cls-6{fill:#939598;}</style><clipPath id="clip-path"><path class="cls-1" d="M861.1,6A25,25,0,0,1,886,30.9V569a24.9,24.9,0,0,1-24.9,24.9H30.9A24.82,24.82,0,0,1,6,569.1V30.9A25,25,0,0,1,30.9,6H861.1"/></clipPath></defs><title>Estados Unidos</title><g id="Layer_2" data-name="Layer 2"><g class="cls-2"><rect id="_59" data-name="59" class="cls-3" width="907.48" height="679.3"/><rect id="_58" data-name="58" class="cls-4" width="907.48" height="39.96"/><rect id="_57" data-name="57" class="cls-4" y="79.92" width="907.48" height="39.96"/><rect id="_56" data-name="56" class="cls-4" y="159.84" width="907.48" height="39.96"/><rect id="_55" data-name="55" class="cls-4" y="239.75" width="907.48" height="39.96"/><rect id="_54" data-name="54" class="cls-4" y="319.67" width="907.48" height="39.96"/><rect id="_53" data-name="53" class="cls-4" y="399.59" width="907.48" height="39.96"/><rect id="_52" data-name="52" class="cls-4" y="479.51" width="907.48" height="39.96"/><rect id="_52-2" data-name="52" class="cls-4" y="559.43" width="907.48" height="39.96"/><rect id="_52-3" data-name="52" class="cls-4" y="559.43" width="907.48" height="39.96"/><rect id="_51" data-name="51" class="cls-5" width="394.79" height="279.71"/><polygon id="_50" data-name="50" class="cls-3" points="18.55 22.71 27.95 29.54 24.36 40.6 33.77 33.76 43.17 40.6 39.58 29.54 48.98 22.71 37.36 22.71 33.77 11.65 30.17 22.71 18.55 22.71"/><polygon id="_49" data-name="49" class="cls-3" points="84 22.71 93.41 29.54 89.81 40.6 99.22 33.76 108.62 40.6 105.03 29.54 114.43 22.71 102.81 22.71 99.22 11.65 95.63 22.71 84 22.71"/><polygon id="_48" data-name="48" class="cls-3" points="149.45 22.71 158.86 29.54 155.27 40.6 164.67 33.76 174.07 40.6 170.48 29.54 179.89 22.71 168.26 22.71 164.67 11.65 161.08 22.71 149.45 22.71"/><polygon id="_47" data-name="47" class="cls-3" points="214.91 22.71 224.31 29.54 220.72 40.6 230.12 33.76 239.53 40.6 235.94 29.54 245.34 22.71 233.72 22.71 230.12 11.65 226.53 22.71 214.91 22.71"/><polygon id="_46" data-name="46" class="cls-3" points="280.36 22.71 289.76 29.54 286.17 40.6 295.58 33.76 304.98 40.6 301.39 29.54 310.79 22.71 299.17 22.71 295.58 11.65 291.98 22.71 280.36 22.71"/><polygon id="_45" data-name="45" class="cls-3" points="345.81 22.71 355.22 29.54 351.62 40.6 361.03 33.76 370.43 40.6 366.84 29.54 376.25 22.71 364.62 22.71 361.03 11.65 357.44 22.71 345.81 22.71"/><polygon id="_44" data-name="44" class="cls-3" points="51.27 50.76 60.68 57.59 57.09 68.65 66.49 61.81 75.9 68.65 72.3 57.59 81.71 50.76 70.08 50.76 66.49 39.7 62.9 50.76 51.27 50.76"/><polygon id="_43" data-name="43" class="cls-3" points="116.73 50.76 126.13 57.59 122.54 68.65 131.94 61.81 141.35 68.65 137.76 57.59 147.16 50.76 135.54 50.76 131.94 39.7 128.35 50.76 116.73 50.76"/><polygon id="_42" data-name="42" class="cls-3" points="182.18 50.76 191.59 57.59 187.99 68.65 197.4 61.81 206.8 68.65 203.21 57.59 212.61 50.76 200.99 50.76 197.4 39.7 193.81 50.76 182.18 50.76"/><polygon id="_41" data-name="41" class="cls-3" points="247.63 50.76 257.04 57.59 253.44 68.65 262.85 61.81 272.25 68.65 268.66 57.59 278.07 50.76 266.44 50.76 262.85 39.7 259.26 50.76 247.63 50.76"/><polygon id="_40" data-name="40" class="cls-3" points="313.09 50.76 322.49 57.59 318.9 68.65 328.3 61.81 337.71 68.65 334.11 57.59 343.52 50.76 331.89 50.76 328.3 39.7 324.71 50.76 313.09 50.76"/><polygon id="_39" data-name="39" class="cls-3" points="18.55 78.81 27.95 85.64 24.36 96.7 33.77 89.87 43.17 96.7 39.58 85.64 48.98 78.81 37.36 78.81 33.77 67.75 30.17 78.81 18.55 78.81"/><polygon id="_38" data-name="38" class="cls-3" points="84 78.81 93.41 85.64 89.81 96.7 99.22 89.87 108.62 96.7 105.03 85.64 114.43 78.81 102.81 78.81 99.22 67.75 95.63 78.81 84 78.81"/><polygon id="_37" data-name="37" class="cls-3" points="149.45 78.81 158.86 85.64 155.27 96.7 164.67 89.87 174.07 96.7 170.48 85.64 179.89 78.81 168.26 78.81 164.67 67.75 161.08 78.81 149.45 78.81"/><polygon id="_36" data-name="36" class="cls-3" points="214.91 78.81 224.31 85.64 220.72 96.7 230.12 89.87 239.53 96.7 235.94 85.64 245.34 78.81 233.72 78.81 230.12 67.75 226.53 78.81 214.91 78.81"/><polygon id="_35" data-name="35" class="cls-3" points="280.36 78.81 289.76 85.64 286.17 96.7 295.58 89.87 304.98 96.7 301.39 85.64 310.79 78.81 299.17 78.81 295.58 67.75 291.98 78.81 280.36 78.81"/><polygon id="_34" data-name="34" class="cls-3" points="345.81 78.81 355.22 85.64 351.62 96.7 361.03 89.87 370.43 96.7 366.84 85.64 376.25 78.81 364.62 78.81 361.03 67.75 357.44 78.81 345.81 78.81"/><polygon id="_33" data-name="33" class="cls-3" points="52.08 106.95 61.49 113.79 57.89 124.84 67.3 118.01 76.7 124.84 73.11 113.79 82.52 106.95 70.89 106.95 67.3 95.9 63.71 106.95 52.08 106.95"/><polygon id="_32" data-name="32" class="cls-3" points="117.53 106.95 126.94 113.79 123.35 124.84 132.75 118.01 142.16 124.84 138.56 113.79 147.97 106.95 136.34 106.95 132.75 95.9 129.16 106.95 117.53 106.95"/><polygon id="_31" data-name="31" class="cls-3" points="182.99 106.95 192.39 113.79 188.8 124.84 198.21 118.01 207.61 124.84 204.02 113.79 213.42 106.95 201.8 106.95 198.21 95.9 194.61 106.95 182.99 106.95"/><polygon id="_30" data-name="30" class="cls-3" points="248.44 106.95 257.85 113.79 254.25 124.84 263.66 118.01 273.06 124.84 269.47 113.79 278.87 106.95 267.25 106.95 263.66 95.9 260.06 106.95 248.44 106.95"/><polygon id="_29" data-name="29" class="cls-3" points="313.89 106.95 323.3 113.79 319.7 124.84 329.11 118.01 338.51 124.84 334.92 113.79 344.33 106.95 332.7 106.95 329.11 95.9 325.52 106.95 313.89 106.95"/><polygon id="_28" data-name="28" class="cls-3" points="19.54 134.77 28.95 141.6 25.35 152.66 34.76 145.83 44.16 152.66 40.57 141.6 49.98 134.77 38.35 134.77 34.76 123.72 31.17 134.77 19.54 134.77"/><polygon id="_27" data-name="27" class="cls-3" points="85 134.77 94.4 141.6 90.81 152.66 100.21 145.83 109.61 152.66 106.02 141.6 115.43 134.77 103.8 134.77 100.21 123.72 96.62 134.77 85 134.77"/><polygon id="_26" data-name="26" class="cls-3" points="150.45 134.77 159.85 141.6 156.26 152.66 165.66 145.83 175.07 152.66 171.48 141.6 180.88 134.77 169.26 134.77 165.66 123.72 162.07 134.77 150.45 134.77"/><polygon id="_25" data-name="25" class="cls-3" points="215.9 134.77 225.31 141.6 221.71 152.66 231.12 145.83 240.52 152.66 236.93 141.6 246.33 134.77 234.71 134.77 231.12 123.72 227.53 134.77 215.9 134.77"/><polygon id="_24" data-name="24" class="cls-3" points="281.35 134.77 290.76 141.6 287.17 152.66 296.57 145.83 305.97 152.66 302.38 141.6 311.79 134.77 300.16 134.77 296.57 123.72 292.98 134.77 281.35 134.77"/><polygon id="_23" data-name="23" class="cls-3" points="346.81 134.77 356.21 141.6 352.62 152.66 362.02 145.83 371.43 152.66 367.83 141.6 377.24 134.77 365.61 134.77 362.02 123.72 358.43 134.77 346.81 134.77"/><polygon id="_22" data-name="22" class="cls-3" points="20.16 189.99 29.56 196.82 25.97 207.87 35.37 201.04 44.78 207.87 41.18 196.82 50.59 189.99 38.96 189.99 35.37 178.93 31.78 189.99 20.16 189.99"/><polygon id="_21" data-name="21" class="cls-3" points="85.61 189.99 95.01 196.82 91.42 207.87 100.82 201.04 110.23 207.87 106.64 196.82 116.04 189.99 104.42 189.99 100.82 178.93 97.23 189.99 85.61 189.99"/><polygon id="_20" data-name="20" class="cls-3" points="151.06 189.99 160.47 196.82 156.87 207.87 166.28 201.04 175.68 207.87 172.09 196.82 181.49 189.99 169.87 189.99 166.28 178.93 162.69 189.99 151.06 189.99"/><polygon id="_19" data-name="19" class="cls-3" points="216.51 189.99 225.92 196.82 222.33 207.87 231.73 201.04 241.13 207.87 237.54 196.82 246.95 189.99 235.32 189.99 231.73 178.93 228.14 189.99 216.51 189.99"/><polygon id="_18" data-name="18" class="cls-3" points="281.97 189.99 291.37 196.82 287.78 207.87 297.18 201.04 306.59 207.87 303 196.82 312.4 189.99 300.77 189.99 297.18 178.93 293.59 189.99 281.97 189.99"/><polygon id="_17" data-name="17" class="cls-3" points="347.42 189.99 356.82 196.82 353.23 207.87 362.63 201.04 372.04 207.87 368.45 196.82 377.85 189.99 366.23 189.99 362.63 178.93 359.04 189.99 347.42 189.99"/><polygon id="_16" data-name="16" class="cls-3" points="19.36 245.85 28.76 252.68 25.17 263.74 34.57 256.9 43.98 263.74 40.38 252.68 49.79 245.85 38.16 245.85 34.57 234.79 30.98 245.85 19.36 245.85"/><polygon id="_15" data-name="15" class="cls-3" points="84.81 245.85 94.21 252.68 90.62 263.74 100.03 256.9 109.43 263.74 105.84 252.68 115.24 245.85 103.62 245.85 100.03 234.79 96.43 245.85 84.81 245.85"/><polygon id="_14" data-name="14" class="cls-3" points="150.26 245.85 159.67 252.68 156.07 263.74 165.48 256.9 174.88 263.74 171.29 252.68 180.69 245.85 169.07 245.85 165.48 234.79 161.89 245.85 150.26 245.85"/><polygon id="_13" data-name="13" class="cls-3" points="215.72 245.85 225.12 252.68 221.53 263.74 230.93 256.9 240.34 263.74 236.74 252.68 246.15 245.85 234.52 245.85 230.93 234.79 227.34 245.85 215.72 245.85"/><polygon id="_12" data-name="12" class="cls-3" points="281.17 245.85 290.57 252.68 286.98 263.74 296.38 256.9 305.79 263.74 302.19 252.68 311.6 245.85 299.98 245.85 296.38 234.79 292.79 245.85 281.17 245.85"/><polygon id="_11" data-name="11" class="cls-3" points="346.62 245.85 356.02 252.68 352.43 263.74 361.84 256.9 371.24 263.74 367.65 252.68 377.05 245.85 365.43 245.85 361.84 234.79 358.24 245.85 346.62 245.85"/><polygon id="_10" data-name="10" class="cls-3" points="52.28 162.1 61.68 168.93 58.09 179.99 67.49 173.16 76.9 179.99 73.31 168.93 82.71 162.1 71.08 162.1 67.49 151.04 63.9 162.1 52.28 162.1"/><polygon id="_9" data-name="9" class="cls-3" points="117.73 162.1 127.13 168.93 123.54 179.99 132.95 173.16 142.35 179.99 138.76 168.93 148.16 162.1 136.54 162.1 132.95 151.04 129.35 162.1 117.73 162.1"/><polygon id="_8" data-name="8" class="cls-3" points="183.18 162.1 192.59 168.93 189 179.99 198.4 173.16 207.8 179.99 204.21 168.93 213.62 162.1 201.99 162.1 198.4 151.04 194.81 162.1 183.18 162.1"/><polygon id="_7" data-name="7" class="cls-3" points="248.63 162.1 258.04 168.93 254.45 179.99 263.85 173.16 273.26 179.99 269.66 168.93 279.07 162.1 267.44 162.1 263.85 151.04 260.26 162.1 248.63 162.1"/><polygon id="_6" data-name="6" class="cls-3" points="314.09 162.1 323.49 168.93 319.9 179.99 329.3 173.16 338.71 179.99 335.12 168.93 344.52 162.1 332.9 162.1 329.3 151.04 325.71 162.1 314.09 162.1"/><polygon id="_5" data-name="5" class="cls-3" points="52.08 217.88 61.49 224.71 57.9 235.77 67.3 228.93 76.7 235.77 73.11 224.71 82.52 217.88 70.89 217.88 67.3 206.82 63.71 217.88 52.08 217.88"/><polygon id="_4" data-name="4" class="cls-3" points="117.54 217.88 126.94 224.71 123.35 235.77 132.75 228.93 142.16 235.77 138.56 224.71 147.97 217.88 136.34 217.88 132.75 206.82 129.16 217.88 117.54 217.88"/><polygon id="_3" data-name="3" class="cls-3" points="182.99 217.88 192.39 224.71 188.8 235.77 198.21 228.93 207.61 235.77 204.02 224.71 213.42 217.88 201.8 217.88 198.21 206.82 194.61 217.88 182.99 217.88"/><polygon id="_2" data-name="2" class="cls-3" points="248.44 217.88 257.85 224.71 254.25 235.77 263.66 228.93 273.06 235.77 269.47 224.71 278.87 217.88 267.25 217.88 263.66 206.82 260.06 217.88 248.44 217.88"/><polygon id="_1" data-name="1" class="cls-3" points="313.89 217.88 323.3 224.71 319.71 235.77 329.11 228.93 338.51 235.77 334.92 224.71 344.33 217.88 332.7 217.88 329.11 206.82 325.52 217.88 313.89 217.88"/></g></g><g id="Layer_1" data-name="Layer 1"><g id="Layer_1-2" data-name="Layer 1"><path class="cls-6" d="M861.1,6A25,25,0,0,1,886,30.9V569a24.9,24.9,0,0,1-24.9,24.9H30.9A24.82,24.82,0,0,1,6,569.1V30.9A25,25,0,0,1,30.9,6H861.1m0-6H30.9A30.86,30.86,0,0,0,0,30.9H0V569a30.88,30.88,0,0,0,30.9,31H861a30.86,30.86,0,0,0,30.9-30.9V30.9A30.71,30.71,0,0,0,861.1,0Z"/></g></g></svg>